HIERARCHY
ROOT Hips
{
	OFFSET	0.00	0.00	0.00
	CHANNELS 6 Xposition Yposition Zposition Zrotation Xrotation Yrotation
	JOINT LeftUpLeg
	{
		OFFSET	 0.126116	-0.014019	-0.065224
		CHANNELS 3 Zrotation Xrotation Yrotation
		JOINT LeftLeg
		{
			OFFSET	 0.000000	 0.000000	 0.569914
			CHANNELS 3 Zrotation Xrotation Yrotation
			JOINT LeftFoot
			{
				OFFSET	 0.000000	 0.000000	 0.544423
				CHANNELS 3 Zrotation Xrotation Yrotation
				JOINT LeftToeBase
				{
					OFFSET	 0.000000	 0.000000	 0.207117
					CHANNELS 3 Zrotation Xrotation Yrotation
					End Site
					{
						OFFSET	 0.000000	 0.000000	 0.207117
					}
				}
			}
		}
	}
	JOINT RightUpLeg
	{
		OFFSET	-0.124023	-0.008373	-0.065224
		CHANNELS 3 Zrotation Xrotation Yrotation
		JOINT RightLeg
		{
			OFFSET	 0.000000	 0.000000	 0.570047
			CHANNELS 3 Zrotation Xrotation Yrotation
			JOINT RightFoot
			{
				OFFSET	 0.000000	 0.000000	 0.544354
				CHANNELS 3 Zrotation Xrotation Yrotation
				JOINT RightToeBase
				{
					OFFSET	 0.000000	 0.000000	 0.207540
					CHANNELS 3 Zrotation Xrotation Yrotation
					End Site
					{
						OFFSET	 0.000000	 0.000000	 0.207540
					}
				}
			}
		}
	}
	JOINT Spine
	{
		OFFSET	 0.000184	-0.007763	 0.117403
		CHANNELS 3 Zrotation Xrotation Yrotation
		JOINT Spine1
		{
			OFFSET	 0.000000	 0.000000	 0.137269
			CHANNELS 3 Zrotation Xrotation Yrotation
			JOINT Spine2
			{
				OFFSET	 0.000000	 0.000000	 0.156879
				CHANNELS 3 Zrotation Xrotation Yrotation
				JOINT LeftShoulder
				{
					OFFSET	 0.080501	-0.002496	 0.160144
					CHANNELS 3 Zrotation Xrotation Yrotation
					JOINT LeftArm
					{
						OFFSET	 0.000000	 0.000000	 0.164363
						CHANNELS 3 Zrotation Xrotation Yrotation
						JOINT LeftForeArm
						{
							OFFSET	 0.000000	 0.000000	 0.364576
							CHANNELS 3 Zrotation Xrotation Yrotation
							JOINT LeftHand
							{
								OFFSET	 0.000000	 0.000000	 0.360812
								CHANNELS 3 Zrotation Xrotation Yrotation
								JOINT LeftHandIndex1
								{
									OFFSET	 0.000000	 0.000000	 0.086006
									CHANNELS 3 Zrotation Xrotation Yrotation
									JOINT LeftHandIndex2
									{
										OFFSET	 0.000000	 0.000000	 0.047236
										CHANNELS 3 Zrotation Xrotation Yrotation
										JOINT LeftHandIndex3
										{
											OFFSET	-0.004284	-0.000551	 0.038166
											CHANNELS 3 Zrotation Xrotation Yrotation
											End Site
											{
												OFFSET	-0.004284	-0.000551	 0.038166
											}
										}
									}
								}
							}
						}
					}
				}
				JOINT Neck
				{
					OFFSET	 0.000000	 0.000000	 0.176489
					CHANNELS 3 Zrotation Xrotation Yrotation
					JOINT Head
					{
						OFFSET	 0.000000	-0.001747	 0.077940
						CHANNELS 3 Zrotation Xrotation Yrotation
						End Site
						{
							OFFSET	 0.000000	-0.001747	 0.077940
						}
					}
				}
				JOINT RightShoulder
				{
					OFFSET	-0.080363	 0.000306	 0.159706
					CHANNELS 3 Zrotation Xrotation Yrotation
					JOINT RightArm
					{
						OFFSET	 0.000000	 0.000000	 0.164196
						CHANNELS 3 Zrotation Xrotation Yrotation
						JOINT RightForeArm
						{
							OFFSET	 0.000000	 0.000000	 0.365611
							CHANNELS 3 Zrotation Xrotation Yrotation
							JOINT RightHand
							{
								OFFSET	 0.000000	 0.000000	 0.360648
								CHANNELS 3 Zrotation Xrotation Yrotation
								JOINT RightHandIndex1
								{
									OFFSET	 0.000000	 0.000000	 0.069977
									CHANNELS 3 Zrotation Xrotation Yrotation
									JOINT RightHandIndex2
									{
										OFFSET	 0.000000	 0.000000	 0.052305
										CHANNELS 3 Zrotation Xrotation Yrotation
										JOINT RightHandIndex3
										{
											OFFSET	 0.009002	-0.000782	 0.042196
											CHANNELS 3 Zrotation Xrotation Yrotation
											End Site
											{
												OFFSET	 0.009002	-0.000782	 0.042196
											}
										}
									}
								}
							}
						}
					}
				}
			}
		}
	}
}
MOTION
Frames:    6
Frame Time: 0.03333334
 0.011175	 0.048548	 1.197179	 5.078460	-1.387157	-3.674160	 9.879273	-11.195320	-173.359500	 0.973715	-40.007010	 0.399235	 61.268540	 82.254380	-65.214060	-2.369639	 31.574550	-0.069009	-15.235900	-32.186380	-174.994300	 11.105830	-52.278240	 9.434384	 14.329420	 77.787350	-9.708955	 2.358843	 33.019450	 0.103673	 0.769388	 8.794207	 0.720508	 1.958851	 2.948109	 3.500093	-9.537020	-2.447181	-4.366097	-93.950200	 58.950520	 175.364900	 16.060720	 34.024190	-38.250480	-1.757664	-0.045424	-0.708008	 1.055245	-6.027580	-7.463194	-4.870156	 19.241910	-2.790661	-3.878828	 21.507340	 2.200009	-4.806300	 5.568578	 0.145619	-0.073032	-5.078553	 0.185614	-11.430770	 1.708101	 1.963941	 89.776460	 61.651140	 179.986500	-18.952300	 50.637500	 8.141519	-1.081047	-2.546113	 13.799770	-4.942956	 8.779638	 0.563729	 6.292387	 24.725720	-0.538731	 1.902762	 44.560770	-7.008493	 0.550244	 24.170940	 3.556140
 0.010457	 0.031777	 1.193893	 5.598343	-0.936614	-3.689270	 9.571908	-11.101810	-173.533700	 1.215490	-40.557080	 0.560998	 66.743390	 82.784490	-70.865530	-2.368747	 31.723010	-0.072372	-17.021100	-34.146160	-175.666700	 11.624300	-50.602790	 9.628665	 18.079700	 80.702520	-14.117720	 2.358978	 32.998170	 0.103180	-0.224879	 8.532429	 0.629226	 1.921582	 2.738627	 3.608175	-9.606163	-2.340959	-4.367129	-94.076540	 58.975560	 175.092400	 15.439150	 32.786050	-38.690320	-2.294977	-0.037763	-0.852831	 1.471366	-6.259554	-7.962131	-4.866067	 19.347750	-2.797829	-3.871840	 21.596590	 2.192909	-4.804727	 5.587154	 0.144530	-0.046021	-5.099810	 0.221205	-11.419070	 1.778177	 1.891424	 89.728160	 61.736360	 179.871000	-18.711690	 51.135590	 7.021671	-1.158895	-2.647702	 14.377110	-5.045755	 9.146111	 0.381409	 6.280352	 23.838250	-0.547607	 2.008856	 43.683670	-7.102757	 0.737653	 23.341180	 3.462543
 0.008961	-0.010023	 1.186932	 6.314713	-0.054508	-3.923212	 9.184660	-10.078710	-173.859300	 1.548332	-41.035510	 0.785018	 81.921620	 83.787250	-86.221640	-2.366468	 32.093120	-0.080803	-19.665530	-37.596040	-177.185900	 11.837910	-44.984510	 8.976302	 26.230150	 83.050510	-23.716080	 2.360499	 32.773040	 0.097957	-2.056392	 7.933997	 0.658051	 1.813076	 2.681030	 3.750940	-9.689763	-2.254754	-4.363896	-94.300570	 58.988800	 174.612900	 13.681270	 29.925670	-39.780610	-3.589563	-0.014994	-1.143839	 1.811387	-6.885727	-8.043829	-4.852312	 19.671840	-2.813594	-3.854980	 21.811000	 2.175777	-4.797413	 5.673263	 0.139481	-0.011594	-5.158041	 0.292007	-11.398100	 1.909570	 1.830319	 89.605290	 61.905970	 179.574500	-18.186100	 52.150850	 4.977502	-1.641967	-2.756317	 14.649650	-5.431286	 9.908604	-0.353581	 6.250284	 21.940770	-0.596904	 2.199539	 42.029950	-7.270911	 1.158092	 21.435860	 3.260849
 0.007395	-0.054351	 1.179363	 6.581243	 0.502091	-4.270193	 9.090190	-8.220939	-174.215200	 1.714032	-40.932150	 0.891979	 98.793060	 84.414330	-103.086700	-2.361541	 32.855570	-0.098320	-20.209470	-39.511610	-178.192900	 11.116730	-37.946450	 7.367524	 42.313930	 84.335860	-40.821170	 2.356532	 33.354380	 0.111476	-3.648295	 7.423932	 0.882707	 1.709427	 3.082866	 3.713255	-9.669428	-2.288189	-4.291712	-94.435410	 58.971490	 174.328300	 11.655190	 27.388460	-40.865640	-4.950570	 0.013900	-1.422795	 1.559777	-7.273558	-7.496031	-4.833646	 20.062080	-2.821834	-3.834193	 22.073630	 2.154666	-4.780183	 5.875910	 0.127562	 0.011953	-5.241199	 0.333536	-11.331550	 2.010049	 1.801325	 89.487300	 62.016870	 179.287600	-17.423410	 52.927280	 3.469608	-2.432930	-2.682691	 13.748350	-5.808894	 10.489340	-1.595874	 6.212902	 19.913170	-0.674399	 2.426753	 39.919900	-7.468982	 1.596571	 19.385250	 3.063243
 0.005262	-0.096247	 1.170388	 6.776811	 0.700723	-4.532469	 8.972890	-6.135869	-174.729900	 1.892595	-40.860210	 1.007549	 111.803800	 84.806350	-116.043400	-2.350147	 34.454560	-0.135828	-19.874960	-40.933190	-178.722300	 10.782220	-32.674770	 6.290415	 69.531190	 84.830060	-68.887050	 2.344829	 34.925520	 0.148737	-5.342196	 7.275945	 1.062608	 1.614555	 3.312846	 3.661823	-9.563024	-2.277484	-4.200318	-94.509280	 58.934350	 174.177100	 9.773052	 25.693680	-41.638160	-5.905582	 0.045024	-1.702523	 1.215935	-7.721642	-7.361746	-4.831580	 20.363260	-2.899201	-3.809477	 22.383620	 2.129560	-4.751535	 6.211324	 0.107684	 0.058227	-5.332371	 0.349716	-11.171770	 2.141752	 1.669786	 89.402260	 62.023110	 179.081900	-16.363840	 53.390940	 2.032230	-3.167713	-2.523401	 12.693090	-5.902717	 10.639760	-2.947984	 6.179209	 17.807980	-0.711022	 2.689642	 37.271580	-7.694565	 2.030259	 17.295190	 2.881251
 0.001618	-0.139874	 1.157921	 7.061238	 0.676803	-4.568546	 8.659923	-3.876210	-175.644800	 2.291208	-41.173290	 1.276457	 116.730800	 85.546620	-120.921200	-2.320525	 37.874000	-0.220036	-19.804600	-43.901960	-179.570700	 11.010020	-30.804930	 6.089725	 48.576350	 83.743520	-48.335090	 2.336409	 35.949730	 0.173619	-7.421725	 7.414382	 1.079128	 1.540127	 3.378125	 3.605785	-9.392984	-2.221981	-4.116779	-94.536500	 59.016450	 174.105500	 7.930700	 24.554860	-42.424780	-6.625294	 0.084309	-2.018983	 0.786976	-8.747127	-7.819851	-4.856291	 20.536550	-3.094045	-3.781371	 22.733100	 2.101018	-4.708884	 6.707786	 0.077919	 0.132102	-5.427138	 0.325849	-10.889920	 2.358271	 1.474456	 89.357470	 61.856260	 178.980100	-15.117120	 53.627620	-0.115195	-3.694395	-2.531532	 12.716780	-5.819524	 10.337850	-4.233828	 6.170945	 15.524600	-0.599969	 2.918772	 34.764030	-7.887585	 2.486612	 15.032470	 2.704952
